<?xml version="1.0" standalone="no"?>
<!DOCTYPE svg PUBLIC "-//W3C//DTD SVG 20010904//EN"
 "http://www.w3.org/TR/2001/REC-SVG-20010904/DTD/svg10.dtd">
<svg version="1.0" xmlns="http://www.w3.org/2000/svg"
 width="389.000000pt" height="389.000000pt" viewBox="0 0 389.000000 389.000000"
 preserveAspectRatio="xMidYMid meet">
<metadata>
Created by potrace 1.14, written by Peter Selinger 2001-2017
</metadata>
<g transform="translate(0.000000,389.000000) scale(0.100000,-0.100000)"
fill="#000000" stroke="none">
<path d="M1595 3698 c-43 -19 -46 -48 -46 -407 1 -187 2 -346 3 -353 2 -7 15
-25 30 -40 l27 -27 0 -246 0 -246 -62 -30 c-34 -16 -70 -29 -79 -29 -10 0 -18
-4 -18 -9 0 -7 -44 -21 -65 -20 -3 0 -13 -7 -21 -16 -9 -8 -21 -15 -27 -15
-10 0 -176 -64 -232 -90 -11 -5 -58 -24 -105 -41 -47 -18 -94 -39 -105 -46
-11 -7 -26 -13 -33 -13 -8 0 -30 -7 -50 -16 -21 -9 -51 -23 -69 -30 -17 -8
-38 -14 -47 -14 -9 0 -16 -4 -16 -10 0 -5 -9 -10 -19 -10 -11 0 -32 -11 -47
-24 -24 -20 -28 -31 -28 -78 -1 -52 16 -88 42 -88 5 0 9 -114 8 -282 -1 -156
2 -298 5 -316 4 -17 4 -34 0 -36 -3 -2 -6 -91 -5 -198 1 -106 -3 -198 -8 -204
-10 -13 -17 -169 -9 -183 9 -14 57 -31 87 -31 14 0 38 6 53 14 27 14 28 17 26
94 -1 43 -5 85 -10 92 -5 8 -9 236 -9 508 l-1 494 39 -5 c21 -3 42 -10 45 -15
3 -5 18 -8 34 -8 15 1 27 -1 27 -4 0 -4 28 -14 63 -24 34 -9 70 -22 80 -27 11
-6 21 -8 24 -5 3 3 14 1 25 -5 11 -6 30 -13 43 -15 13 -2 56 -16 97 -30 72
-25 199 -63 228 -68 8 -1 22 -5 30 -8 8 -4 35 -12 60 -20 l45 -13 -2 -150 c0
-82 -4 -192 -8 -243 -9 -113 -2 -123 87 -120 54 1 75 14 70 41 -1 4 3 7 9 7 5
0 7 5 3 12 -4 7 -9 39 -10 72 -1 34 -6 75 -11 91 -7 25 -10 159 -4 228 1 21
29 22 59 1 17 -12 22 -12 22 -2 0 10 2 10 9 -1 5 -7 13 -11 18 -8 6 4 18 1 27
-6 16 -12 17 -52 17 -511 0 -274 -4 -503 -9 -510 -5 -6 -10 -45 -11 -86 -2
-41 -4 -77 -7 -81 -2 -4 7 -16 21 -27 30 -23 123 -22 141 2 12 17 11 177 -2
197 -12 20 -14 38 -3 44 4 3 5 16 1 28 -10 29 -9 368 1 385 5 6 5 12 0 12 -4
0 -8 98 -7 217 1 257 2 263 85 304 31 16 64 30 75 32 10 1 24 5 29 9 6 3 48
21 95 39 47 18 87 37 88 41 2 4 12 8 21 8 10 0 21 3 25 7 3 4 12 8 19 9 7 1
35 12 62 25 28 12 59 24 70 26 11 2 24 8 29 13 6 6 18 10 28 10 10 0 18 5 18
12 0 6 3 8 6 5 4 -3 16 -1 28 5 11 7 28 13 36 14 8 2 26 8 40 14 14 7 39 18
55 25 17 7 44 18 60 25 51 23 57 21 53 -11 -3 -16 -2 -29 1 -29 5 0 6 -55 1
-70 -4 -14 0 -212 5 -219 3 -5 1 -12 -5 -16 -7 -4 -7 -12 0 -25 6 -10 7 -21 3
-23 -9 -6 -8 -191 1 -205 3 -6 2 -14 -4 -17 -8 -5 -7 -11 1 -21 6 -8 8 -14 3
-14 -5 0 -8 -19 -7 -42 4 -69 2 -171 -3 -208 -24 -154 -19 -220 17 -220 10 0
19 -4 19 -10 0 -6 9 -6 23 -1 12 4 28 6 35 4 7 -3 23 2 36 11 22 14 23 20 20
100 -2 47 -7 93 -11 103 -5 10 -8 533 -8 1163 2 1083 1 1147 -16 1181 -12 24
-29 41 -49 47 -29 11 -30 13 -29 69 1 35 -3 59 -10 61 -6 2 -9 7 -6 12 13 21
-61 52 -210 89 -3 1 -10 4 -17 6 -7 2 -26 6 -43 9 -16 2 -30 5 -30 6 0 2 -26
8 -55 15 -63 13 -80 19 -80 28 0 6 -2 8 -6 5 -3 -3 -36 2 -75 12 -38 10 -69
16 -69 14 0 -3 -8 0 -19 5 -10 6 -31 13 -47 16 -52 9 -87 17 -114 27 -32 12
-136 40 -163 44 -16 2 -33 7 -39 10 -6 4 -21 8 -32 10 -12 2 -30 5 -41 8 -11
3 -40 10 -65 16 -25 6 -53 16 -63 21 -11 6 -21 8 -24 5 -3 -3 -15 0 -27 6 -27
15 -114 18 -141 6z m301 -911 c4 -4 18 -7 31 -7 13 0 37 -7 53 -15 17 -9 30
-13 30 -9 0 4 6 2 13 -3 6 -6 20 -9 30 -8 9 2 17 0 17 -4 0 -4 24 -13 53 -21
53 -14 57 -15 92 -24 11 -2 65 -19 120 -36 55 -17 107 -33 116 -35 41 -9 105
-29 114 -35 6 -4 18 -6 28 -5 9 2 17 0 17 -4 0 -4 6 -8 13 -8 16 -1 112 -28
162 -46 l40 -14 0 -232 c1 -128 -3 -235 -7 -237 -4 -3 -14 -2 -20 3 -14 8 -15
8 -63 18 -16 3 -36 12 -44 18 -12 9 -13 9 -8 0 5 -7 -11 -5 -40 7 -79 31 -276
90 -310 92 -7 1 -13 4 -13 8 0 4 -6 7 -12 7 -7 0 -53 13 -103 29 -49 15 -93
27 -97 26 -5 -1 -8 2 -8 8 0 5 -6 7 -14 4 -8 -3 -17 0 -21 5 -3 6 -10 9 -15 6
-4 -3 -26 2 -49 10 -23 8 -41 12 -41 8 0 -3 -6 -1 -12 5 -7 6 -30 13 -51 17
-20 4 -40 11 -43 17 -5 7 -7 236 -4 435 0 27 4 32 20 30 11 -2 23 -6 26 -10z"/>
</g>
</svg>
